<?xml version="1.0" encoding="UTF-8"?>
<svg xmlns="http://www.w3.org/2000/svg" xmlns:xlink="http://www.w3.org/1999/xlink" width="20px" height="9px" viewBox="0 0 20 9" version="1.1">
<g id="surface1">
<path style=" stroke:none;fill-rule:nonzero;fill:rgb(100%,100%,100%);fill-opacity:1;" d="M 14.285156 7.347656 L 14.285156 6.265625 C 14.933594 6.039062 15.402344 5.328125 15.402344 4.488281 C 15.402344 3.652344 14.933594 2.941406 14.285156 2.714844 L 14.285156 1.632812 C 14.894531 1.417969 15.347656 0.777344 15.398438 0 L 14.65625 0 L 14.65625 0.332031 C 14.65625 0.585938 14.507812 0.808594 14.285156 0.921875 L 14.285156 0.765625 C 14.285156 0.539062 14.089844 0.355469 13.855469 0.355469 L 13.816406 0.355469 C 13.578125 0.355469 13.386719 0.539062 13.386719 0.765625 L 13.386719 0.921875 C 13.164062 0.808594 13.011719 0.585938 13.011719 0.332031 L 13.011719 0 L 12.269531 0 C 12.320312 0.777344 12.777344 1.417969 13.386719 1.632812 L 13.386719 2.714844 C 12.742188 2.941406 12.265625 3.648438 12.265625 4.488281 C 12.265625 5.332031 12.738281 6.039062 13.386719 6.265625 L 13.386719 7.347656 C 12.777344 7.5625 12.320312 8.203125 12.269531 8.980469 L 13.011719 8.980469 L 13.011719 8.648438 C 13.011719 8.394531 13.164062 8.171875 13.386719 8.058594 L 13.386719 8.214844 C 13.386719 8.441406 13.578125 8.625 13.816406 8.625 L 13.855469 8.625 C 14.089844 8.625 14.285156 8.441406 14.285156 8.214844 L 14.285156 8.058594 C 14.507812 8.171875 14.65625 8.394531 14.65625 8.648438 L 14.65625 8.980469 L 15.398438 8.980469 C 15.347656 8.203125 14.894531 7.5625 14.285156 7.347656 Z M 13.011719 4.960938 L 13.011719 4.015625 C 13.011719 3.761719 13.164062 3.539062 13.386719 3.425781 L 13.386719 3.578125 C 13.386719 3.804688 13.578125 3.988281 13.816406 3.988281 L 13.855469 3.988281 C 14.089844 3.988281 14.285156 3.804688 14.285156 3.578125 L 14.285156 3.425781 C 14.507812 3.539062 14.65625 3.757812 14.65625 4.015625 L 14.65625 4.960938 C 14.65625 5.21875 14.507812 5.441406 14.285156 5.554688 L 14.285156 5.398438 C 14.285156 5.171875 14.089844 4.988281 13.855469 4.988281 L 13.816406 4.988281 C 13.578125 4.988281 13.386719 5.171875 13.386719 5.398438 L 13.386719 5.554688 C 13.167969 5.441406 13.011719 5.21875 13.011719 4.960938 Z M 13.011719 4.960938 "/>
<path style=" stroke:none;fill-rule:nonzero;fill:rgb(100%,100%,100%);fill-opacity:1;" d="M 18.839844 5.066406 L 18.839844 3.914062 C 19.484375 3.683594 19.957031 2.976562 19.957031 2.136719 C 19.957031 1.300781 19.484375 0.589844 18.839844 0.363281 L 18.839844 0 L 17.941406 0 L 17.941406 0.363281 C 17.292969 0.589844 16.824219 1.300781 16.824219 2.136719 C 16.824219 2.976562 17.292969 3.6875 17.941406 3.914062 L 17.941406 5.066406 C 17.292969 5.292969 16.824219 6 16.824219 6.839844 C 16.824219 7.679688 17.292969 8.390625 17.941406 8.617188 L 17.941406 8.976562 L 18.839844 8.976562 L 18.839844 8.617188 C 19.484375 8.386719 19.957031 7.679688 19.957031 6.839844 C 19.957031 6 19.484375 5.292969 18.839844 5.066406 Z M 17.566406 2.609375 L 17.566406 1.664062 C 17.566406 1.410156 17.71875 1.183594 17.941406 1.074219 L 17.941406 1.226562 C 17.941406 1.453125 18.132812 1.636719 18.371094 1.636719 L 18.40625 1.636719 C 18.644531 1.636719 18.835938 1.453125 18.835938 1.226562 L 18.835938 1.074219 C 19.058594 1.183594 19.210938 1.40625 19.210938 1.664062 L 19.210938 2.609375 C 19.210938 2.863281 19.058594 3.089844 18.835938 3.199219 L 18.835938 3.046875 C 18.835938 2.820312 18.644531 2.636719 18.40625 2.636719 L 18.367188 2.636719 C 18.132812 2.636719 17.9375 2.820312 17.9375 3.046875 L 17.9375 3.199219 C 17.71875 3.089844 17.566406 2.867188 17.566406 2.609375 Z M 19.210938 7.316406 C 19.210938 7.570312 19.058594 7.792969 18.839844 7.90625 L 18.839844 7.679688 C 18.839844 7.453125 18.644531 7.269531 18.410156 7.269531 L 18.371094 7.269531 C 18.136719 7.269531 17.941406 7.453125 17.941406 7.679688 L 17.941406 7.90625 C 17.71875 7.792969 17.570312 7.570312 17.570312 7.316406 L 17.570312 6.367188 C 17.570312 6.113281 17.71875 5.890625 17.941406 5.777344 L 17.941406 5.859375 C 17.941406 6.085938 18.136719 6.269531 18.371094 6.269531 L 18.410156 6.269531 C 18.648438 6.269531 18.839844 6.085938 18.839844 5.859375 L 18.839844 5.777344 C 19.0625 5.890625 19.214844 6.113281 19.214844 6.367188 L 19.214844 7.316406 Z M 19.210938 7.316406 "/>
<path style=" stroke:none;fill-rule:nonzero;fill:rgb(100%,100%,100%);fill-opacity:1;" d="M 9.152344 3.574219 C 9.144531 3.527344 9.132812 3.484375 9.117188 3.441406 C 9.125 3.429688 10.515625 1.578125 9.226562 0.433594 C 7.9375 -0.710938 6.433594 0.78125 6.425781 0.789062 C 6.1875 0.71875 5.945312 0.675781 5.707031 0.65625 C 5.214844 0.578125 4.527344 0.65625 4.527344 0.65625 C 4.289062 0.675781 4.050781 0.71875 3.8125 0.789062 C 3.804688 0.78125 2.300781 -0.710938 1.015625 0.433594 C -0.273438 1.578125 1.117188 3.429688 1.125 3.4375 C 1.109375 3.484375 1.097656 3.527344 1.089844 3.570312 C 0.949219 4.363281 0 4.609375 0 5.988281 C 0 7.398438 0.992188 8.507812 3.015625 8.507812 L 3.847656 8.507812 C 3.851562 8.511719 4.171875 8.945312 4.835938 8.972656 C 4.835938 8.972656 4.988281 8.988281 5.339844 8.976562 C 6.042969 8.976562 6.386719 8.515625 6.386719 8.507812 L 7.21875 8.507812 C 9.242188 8.507812 10.234375 7.398438 10.234375 5.992188 C 10.242188 4.613281 9.292969 4.367188 9.152344 3.574219 Z M 9.152344 3.574219 "/>
</g>
</svg>
