<?xml version="1.0" encoding="UTF-8"?>
<svg xmlns="http://www.w3.org/2000/svg" xmlns:xlink="http://www.w3.org/1999/xlink" width="20px" height="20px" viewBox="0 0 20 20" version="1.1">
<g id="surface1">
<path style=" stroke:none;fill-rule:evenodd;fill:rgb(100%,100%,100%);fill-opacity:1;" d="M 14.6875 6.898438 C 14.6875 4.078125 13.898438 1.800781 12.9375 1.800781 C 11.96875 1.800781 11.171875 4.09375 11.171875 6.933594 L 11.171875 17.179688 L 11.917969 17.179688 L 11.917969 6.933594 C 11.917969 5.308594 12.375 3.980469 12.9375 3.980469 C 13.488281 3.980469 13.941406 5.292969 13.941406 6.898438 C 13.941406 8.511719 13.492188 9.816406 12.941406 9.816406 L 12.460938 9.816406 L 12.460938 11.996094 L 12.941406 11.996094 C 13.90625 11.996094 14.6875 9.714844 14.6875 6.898438 Z M 14.6875 6.898438 "/>
<path style=" stroke:none;fill-rule:evenodd;fill:rgb(100%,100%,100%);fill-opacity:1;" d="M 16.488281 6.898438 C 16.488281 4.078125 17.277344 1.800781 18.238281 1.800781 C 19.203125 1.800781 20 4.09375 20 6.933594 L 20 12.003906 L 19.253906 12.003906 L 19.253906 6.933594 C 19.253906 5.308594 18.796875 3.980469 18.238281 3.980469 C 17.683594 3.980469 17.234375 5.292969 17.234375 6.898438 C 17.234375 8.511719 17.679688 9.816406 18.230469 9.816406 L 18.710938 9.816406 L 18.710938 11.996094 L 18.230469 11.996094 C 17.265625 11.996094 16.488281 9.714844 16.488281 6.898438 Z M 16.488281 6.898438 "/>
<path style=" stroke:none;fill-rule:evenodd;fill:rgb(100%,100%,100%);fill-opacity:1;" d="M 1.726562 9.84375 C 2.273438 9.84375 2.71875 8.550781 2.71875 6.953125 C 2.71875 5.355469 2.273438 4.0625 1.726562 4.0625 C 1.183594 4.0625 0.738281 5.355469 0.738281 6.953125 C 0.738281 8.550781 1.183594 9.84375 1.726562 9.84375 Z M 1.726562 11.996094 C 2.679688 11.996094 3.453125 9.738281 3.453125 6.953125 C 3.453125 4.167969 2.679688 1.910156 1.726562 1.910156 C 0.773438 1.910156 0.00390625 4.167969 0.00390625 6.953125 C 0.00390625 9.738281 0.773438 11.996094 1.726562 11.996094 Z M 1.726562 11.996094 "/>
<path style=" stroke:none;fill-rule:evenodd;fill:rgb(100%,100%,100%);fill-opacity:1;" d="M 1.730469 15.902344 C 1.996094 15.902344 2.246094 15.597656 2.433594 15.054688 C 2.621094 14.507812 2.726562 13.769531 2.726562 13 L 3.460938 13 C 3.460938 14.34375 3.28125 15.628906 2.953125 16.578125 C 2.628906 17.523438 2.191406 18.058594 1.730469 18.058594 C 1.273438 18.058594 0.832031 17.523438 0.507812 16.578125 C 0.183594 15.628906 0.00390625 14.34375 0.00390625 13 L 0.738281 13 C 0.738281 13.769531 0.84375 14.507812 1.03125 15.054688 C 1.214844 15.597656 1.46875 15.902344 1.730469 15.902344 Z M 1.730469 15.902344 "/>
<path style=" stroke:none;fill-rule:evenodd;fill:rgb(100%,100%,100%);fill-opacity:1;" d="M 5.324219 8.75 L 5.324219 1.746094 L 6.0625 1.746094 L 6.0625 8.75 C 6.0625 9.34375 6.226562 9.828125 6.429688 9.828125 L 6.875 9.828125 L 6.875 11.984375 L 6.429688 11.984375 C 5.820312 11.984375 5.324219 10.535156 5.324219 8.75 Z M 5.324219 8.75 "/>
<path style=" stroke:none;fill-rule:nonzero;fill:rgb(100%,100%,100%);fill-opacity:1;" d="M 15.207031 5.726562 L 15.953125 5.726562 L 15.953125 12.132812 L 15.207031 12.132812 Z M 15.207031 5.726562 "/>
<path style=" stroke:none;fill-rule:nonzero;fill:rgb(100%,100%,100%);fill-opacity:1;" d="M 15.207031 3.871094 L 15.953125 3.871094 L 15.953125 1.6875 L 15.207031 1.6875 Z M 15.207031 3.871094 "/>
<path style=" stroke:none;fill-rule:nonzero;fill:rgb(100%,100%,100%);fill-opacity:1;" d="M 4.011719 5.726562 L 4.761719 5.726562 L 4.761719 11.996094 L 4.011719 11.996094 Z M 4.011719 5.726562 "/>
<path style=" stroke:none;fill-rule:nonzero;fill:rgb(100%,100%,100%);fill-opacity:1;" d="M 4.011719 3.871094 L 4.761719 3.871094 L 4.761719 1.6875 L 4.011719 1.6875 Z M 4.011719 3.871094 "/>
<path style=" stroke:none;fill-rule:evenodd;fill:rgb(100%,100%,100%);fill-opacity:1;" d="M 10.078125 7.089844 C 10.078125 8.746094 9.617188 10.089844 9.050781 10.089844 C 8.484375 10.089844 8.023438 8.746094 8.023438 7.089844 C 8.023438 5.433594 8.484375 4.089844 9.050781 4.089844 C 9.617188 4.089844 10.078125 5.433594 10.078125 7.089844 Z M 10.824219 7.089844 C 10.824219 9.949219 10.03125 12.269531 9.050781 12.269531 C 8.070312 12.269531 7.277344 9.949219 7.277344 7.089844 C 7.277344 4.226562 8.070312 1.910156 9.050781 1.910156 C 10.03125 1.910156 10.824219 4.226562 10.824219 7.089844 Z M 10.824219 7.089844 "/>
<path style=" stroke:none;fill-rule:nonzero;fill:rgb(100%,100%,100%);fill-opacity:1;" d="M 6.0625 4.316406 L 6.800781 4.316406 L 6.800781 6.472656 L 6.0625 6.472656 Z M 6.0625 4.316406 "/>
<path style=" stroke:none;fill-rule:nonzero;fill:rgb(100%,100%,100%);fill-opacity:1;" d="M 1.332031 0 L 2.105469 0 L 2.105469 2.460938 L 1.332031 2.460938 Z M 1.332031 0 "/>
<path style=" stroke:none;fill-rule:nonzero;fill:rgb(100%,100%,100%);fill-opacity:1;" d="M 1.332031 17.4375 L 2.105469 17.4375 L 2.105469 20 L 1.332031 20 Z M 1.332031 17.4375 "/>
</g>
</svg>
