<?xml version="1.0" encoding="UTF-8"?>
<svg xmlns="http://www.w3.org/2000/svg" xmlns:xlink="http://www.w3.org/1999/xlink" width="58px" height="20px" viewBox="0 0 58 20" version="1.1">
<g id="surface1">
<path style=" stroke:none;fill-rule:evenodd;fill:rgb(100%,100%,100%);fill-opacity:1;" d="M 42.589844 6.898438 C 42.589844 4.078125 40.300781 1.800781 37.515625 1.800781 C 34.707031 1.800781 32.402344 4.09375 32.402344 6.933594 L 32.402344 17.179688 L 34.566406 17.179688 L 34.566406 6.933594 C 34.566406 5.308594 35.890625 3.980469 37.515625 3.980469 C 39.117188 3.980469 40.425781 5.292969 40.425781 6.898438 C 40.425781 8.511719 39.128906 9.816406 37.53125 9.816406 L 36.140625 9.816406 L 36.140625 11.996094 L 37.53125 11.996094 C 40.324219 11.996094 42.589844 9.714844 42.589844 6.898438 Z M 42.589844 6.898438 "/>
<path style=" stroke:none;fill-rule:evenodd;fill:rgb(100%,100%,100%);fill-opacity:1;" d="M 47.8125 6.898438 C 47.8125 4.078125 50.101562 1.800781 52.886719 1.800781 C 55.695312 1.800781 58 4.09375 58 6.933594 L 58 12.003906 L 55.835938 12.003906 L 55.835938 6.933594 C 55.835938 5.308594 54.511719 3.980469 52.886719 3.980469 C 51.28125 3.980469 49.976562 5.292969 49.976562 6.898438 C 49.976562 8.511719 51.269531 9.816406 52.871094 9.816406 L 54.261719 9.816406 L 54.261719 11.996094 L 52.871094 11.996094 C 50.074219 11.996094 47.8125 9.714844 47.8125 6.898438 Z M 47.8125 6.898438 "/>
<path style=" stroke:none;fill-rule:evenodd;fill:rgb(100%,100%,100%);fill-opacity:1;" d="M 5.011719 9.84375 C 6.59375 9.84375 7.878906 8.550781 7.878906 6.953125 C 7.878906 5.355469 6.59375 4.0625 5.011719 4.0625 C 3.425781 4.0625 2.144531 5.355469 2.144531 6.953125 C 2.144531 8.550781 3.425781 9.84375 5.011719 9.84375 Z M 5.011719 11.996094 C 7.773438 11.996094 10.015625 9.738281 10.015625 6.953125 C 10.015625 4.167969 7.773438 1.910156 5.011719 1.910156 C 2.246094 1.910156 0.0078125 4.167969 0.0078125 6.953125 C 0.0078125 9.738281 2.246094 11.996094 5.011719 11.996094 Z M 5.011719 11.996094 "/>
<path style=" stroke:none;fill-rule:evenodd;fill:rgb(100%,100%,100%);fill-opacity:1;" d="M 5.023438 15.902344 C 5.785156 15.902344 6.519531 15.597656 7.058594 15.054688 C 7.597656 14.507812 7.902344 13.769531 7.902344 13 L 10.039062 13 C 10.039062 14.34375 9.511719 15.628906 8.570312 16.578125 C 7.628906 17.523438 6.351562 18.058594 5.023438 18.058594 C 3.691406 18.058594 2.417969 17.523438 1.476562 16.578125 C 0.535156 15.628906 0.0078125 14.34375 0.0078125 13 L 2.144531 13 C 2.144531 13.769531 2.449219 14.507812 2.988281 15.054688 C 3.527344 15.597656 4.257812 15.902344 5.023438 15.902344 Z M 5.023438 15.902344 "/>
<path style=" stroke:none;fill-rule:evenodd;fill:rgb(100%,100%,100%);fill-opacity:1;" d="M 15.4375 8.75 L 15.4375 1.746094 L 17.578125 1.746094 L 17.578125 8.75 C 17.578125 9.34375 18.058594 9.828125 18.648438 9.828125 L 19.933594 9.828125 L 19.933594 11.984375 L 18.648438 11.984375 C 16.875 11.984375 15.4375 10.535156 15.4375 8.75 Z M 15.4375 8.75 "/>
<path style=" stroke:none;fill-rule:nonzero;fill:rgb(100%,100%,100%);fill-opacity:1;" d="M 44.101562 5.726562 L 46.265625 5.726562 L 46.265625 12.132812 L 44.101562 12.132812 Z M 44.101562 5.726562 "/>
<path style=" stroke:none;fill-rule:nonzero;fill:rgb(100%,100%,100%);fill-opacity:1;" d="M 44.101562 3.871094 L 46.265625 3.871094 L 46.265625 1.6875 L 44.101562 1.6875 Z M 44.101562 3.871094 "/>
<path style=" stroke:none;fill-rule:nonzero;fill:rgb(100%,100%,100%);fill-opacity:1;" d="M 11.640625 5.726562 L 13.804688 5.726562 L 13.804688 11.996094 L 11.640625 11.996094 Z M 11.640625 5.726562 "/>
<path style=" stroke:none;fill-rule:nonzero;fill:rgb(100%,100%,100%);fill-opacity:1;" d="M 11.640625 3.871094 L 13.804688 3.871094 L 13.804688 1.6875 L 11.640625 1.6875 Z M 11.640625 3.871094 "/>
<path style=" stroke:none;fill-rule:evenodd;fill:rgb(100%,100%,100%);fill-opacity:1;" d="M 29.222656 7.089844 C 29.222656 8.746094 27.890625 10.089844 26.246094 10.089844 C 24.605469 10.089844 23.273438 8.746094 23.273438 7.089844 C 23.273438 5.433594 24.605469 4.089844 26.246094 4.089844 C 27.890625 4.089844 29.222656 5.433594 29.222656 7.089844 Z M 31.386719 7.089844 C 31.386719 9.949219 29.085938 12.269531 26.246094 12.269531 C 23.410156 12.269531 21.109375 9.949219 21.109375 7.089844 C 21.109375 4.226562 23.410156 1.910156 26.246094 1.910156 C 29.085938 1.910156 31.386719 4.226562 31.386719 7.089844 Z M 31.386719 7.089844 "/>
<path style=" stroke:none;fill-rule:nonzero;fill:rgb(100%,100%,100%);fill-opacity:1;" d="M 17.578125 4.316406 L 19.71875 4.316406 L 19.71875 6.472656 L 17.578125 6.472656 Z M 17.578125 4.316406 "/>
<path style=" stroke:none;fill-rule:nonzero;fill:rgb(100%,100%,100%);fill-opacity:1;" d="M 3.867188 0 L 6.105469 0 L 6.105469 2.460938 L 3.867188 2.460938 Z M 3.867188 0 "/>
<path style=" stroke:none;fill-rule:nonzero;fill:rgb(100%,100%,100%);fill-opacity:1;" d="M 3.867188 17.4375 L 6.105469 17.4375 L 6.105469 20 L 3.867188 20 Z M 3.867188 17.4375 "/>
</g>
</svg>
