<?xml version="1.0" encoding="UTF-8"?>
<svg xmlns="http://www.w3.org/2000/svg" xmlns:xlink="http://www.w3.org/1999/xlink" width="80px" height="80px" viewBox="0 0 80 80" version="1.1">
<g id="surface1">
<path style=" stroke:none;fill-rule:nonzero;fill:rgb(100%,100%,100%);fill-opacity:1;" d="M 39.984375 79.3125 C 61.273438 79.3125 78.53125 62.097656 78.53125 40.863281 C 78.53125 19.628906 61.273438 2.414062 39.984375 2.414062 C 18.699219 2.414062 1.441406 19.628906 1.441406 40.863281 C 1.441406 62.097656 18.699219 79.3125 39.984375 79.3125 Z M 39.984375 79.3125 "/>
<path style="fill-rule:nonzero;fill:rgb(0%,0%,0%);fill-opacity:1;stroke-width:25.8556;stroke-linecap:butt;stroke-linejoin:miter;stroke:rgb(100%,100%,100%);stroke-opacity:1;stroke-miterlimit:4;" d="M 364.357617 699.213477 C 558.354199 699.213477 715.616016 545.786182 715.616016 356.534814 C 715.616016 167.318262 558.354199 13.890967 364.357617 13.890967 C 170.396631 13.890967 13.134814 167.318262 13.134814 356.534814 C 13.134814 545.786182 170.396631 699.213477 364.357617 699.213477 Z M 364.357617 699.213477 " transform="matrix(0.109739,0,0,0.112202,0,0)"/>
<path style=" stroke:none;fill-rule:evenodd;fill:rgb(100%,100%,100%);fill-opacity:1;" d="M 41.441406 26.542969 C 41.441406 25.804688 40.890625 25.203125 40.207031 25.203125 C 40.207031 25.203125 40.207031 25.203125 40.203125 25.203125 C 39.523438 25.203125 38.96875 25.804688 38.96875 26.542969 C 38.96875 31.933594 38.96875 52.035156 38.96875 57.425781 C 38.96875 58.164062 39.523438 58.761719 40.203125 58.761719 C 40.207031 58.761719 40.207031 58.761719 40.207031 58.761719 C 40.890625 58.761719 41.441406 58.164062 41.441406 57.425781 C 41.441406 52.035156 41.441406 31.933594 41.441406 26.542969 Z M 41.441406 26.542969 "/>
<path style=" stroke:none;fill-rule:evenodd;fill:rgb(100%,100%,100%);fill-opacity:1;" d="M 36.445312 51.992188 C 35.761719 51.992188 35.207031 52.589844 35.207031 53.332031 C 35.207031 54.070312 35.761719 54.667969 36.441406 54.667969 C 38.34375 54.671875 41.960938 54.675781 43.859375 54.675781 C 44.542969 54.675781 45.097656 54.078125 45.097656 53.339844 C 45.097656 52.601562 44.546875 52 43.863281 52 C 41.960938 52 38.34375 51.996094 36.445312 51.992188 Z M 36.445312 51.992188 "/>
<path style=" stroke:none;fill-rule:evenodd;fill:rgb(100%,100%,100%);fill-opacity:1;" d="M 30.328125 34.496094 C 29.644531 34.496094 29.09375 35.09375 29.09375 35.835938 C 29.089844 36.574219 29.644531 37.171875 30.328125 37.171875 C 34.210938 37.175781 46.132812 37.1875 50.015625 37.191406 C 50.699219 37.191406 51.253906 36.59375 51.253906 35.855469 C 51.253906 35.117188 50.699219 34.515625 50.019531 34.515625 C 46.132812 34.511719 34.214844 34.5 30.328125 34.496094 Z M 30.328125 34.496094 "/>
<path style=" stroke:none;fill-rule:evenodd;fill:rgb(100%,100%,100%);fill-opacity:1;" d="M 34.410156 27.738281 C 33.925781 27.214844 33.140625 27.214844 32.660156 27.738281 C 32.175781 28.261719 32.175781 29.109375 32.660156 29.628906 C 35.324219 32.503906 43.3125 41.121094 45.976562 43.996094 C 46.460938 44.515625 47.242188 44.515625 47.726562 43.992188 C 48.207031 43.46875 48.207031 42.621094 47.722656 42.101562 C 45.058594 39.226562 37.074219 30.609375 34.410156 27.738281 Z M 34.410156 27.738281 "/>
<path style=" stroke:none;fill-rule:evenodd;fill:rgb(100%,100%,100%);fill-opacity:1;" d="M 32.675781 42.125 C 32.195312 42.648438 32.195312 43.492188 32.679688 44.015625 C 33.164062 44.539062 33.949219 44.535156 34.429688 44.011719 C 37.085938 41.128906 45.050781 32.488281 47.707031 29.609375 C 48.191406 29.085938 48.1875 28.238281 47.703125 27.71875 C 47.703125 27.714844 47.703125 27.714844 47.703125 27.714844 C 47.21875 27.195312 46.4375 27.195312 45.953125 27.71875 C 43.296875 30.601562 35.332031 39.242188 32.675781 42.125 Z M 32.675781 42.125 "/>
<path style="fill:none;stroke-width:14.8532;stroke-linecap:butt;stroke-linejoin:miter;stroke:rgb(94.117647%,50.980392%,49.019608%);stroke-opacity:1;stroke-miterlimit:4;" d="M 364.5 660.813135 C 535.430566 660.813135 673.969043 525.628613 673.969043 358.902197 C 673.969043 192.140967 535.430566 56.956445 364.5 56.956445 C 193.605029 56.956445 55.030957 192.140967 55.030957 358.902197 C 55.030957 525.628613 193.605029 660.813135 364.5 660.813135 Z M 364.5 660.813135 " transform="matrix(0.109739,0,0,0.112202,0,0)"/>
</g>
</svg>
