<?xml version="1.0" encoding="UTF-8"?>
<svg xmlns="http://www.w3.org/2000/svg" xmlns:xlink="http://www.w3.org/1999/xlink" width="20px" height="20px" viewBox="0 0 20 19" version="1.1">
<g id="surface1">
<path style=" stroke:none;fill-rule:nonzero;fill:rgb(100%,100%,100%);fill-opacity:1;" d="M 9.996094 18.835938 C 15.316406 18.835938 19.632812 14.75 19.632812 9.703125 C 19.632812 4.660156 15.316406 0.574219 9.996094 0.574219 C 4.675781 0.574219 0.359375 4.660156 0.359375 9.703125 C 0.359375 14.75 4.675781 18.835938 9.996094 18.835938 Z M 9.996094 18.835938 "/>
<path style="fill-rule:nonzero;fill:rgb(0%,0%,0%);fill-opacity:1;stroke-width:25.8556;stroke-linecap:butt;stroke-linejoin:miter;stroke:rgb(100%,100%,100%);stroke-opacity:1;stroke-miterlimit:4;" d="M 364.357617 699.220806 C 558.283008 699.220806 715.616016 545.744038 715.616016 356.5 C 715.616016 167.255962 558.283008 13.925781 364.357617 13.925781 C 170.432227 13.925781 13.099219 167.255962 13.099219 356.5 C 13.099219 545.744038 170.432227 699.220806 364.357617 699.220806 Z M 364.357617 699.220806 " transform="matrix(0.0274348,0,0,0.026648,0,0)"/>
<path style=" stroke:none;fill-rule:evenodd;fill:rgb(100%,100%,100%);fill-opacity:1;" d="M 10.359375 6.304688 C 10.359375 6.128906 10.222656 5.984375 10.050781 5.984375 C 9.878906 5.984375 9.742188 6.128906 9.742188 6.304688 C 9.742188 7.582031 9.742188 12.359375 9.742188 13.636719 C 9.742188 13.8125 9.878906 13.957031 10.050781 13.957031 C 10.222656 13.957031 10.359375 13.8125 10.359375 13.636719 C 10.359375 12.359375 10.359375 7.582031 10.359375 6.304688 Z M 10.359375 6.304688 "/>
<path style=" stroke:none;fill-rule:evenodd;fill:rgb(100%,100%,100%);fill-opacity:1;" d="M 9.109375 12.347656 C 8.941406 12.347656 8.800781 12.492188 8.800781 12.664062 C 8.800781 12.664062 8.800781 12.667969 8.800781 12.667969 C 8.800781 12.839844 8.941406 12.984375 9.109375 12.984375 C 9.585938 12.984375 10.488281 12.984375 10.964844 12.984375 C 11.136719 12.984375 11.273438 12.84375 11.273438 12.667969 C 11.273438 12.492188 11.136719 12.351562 10.964844 12.351562 C 10.492188 12.351562 9.585938 12.347656 9.109375 12.347656 Z M 9.109375 12.347656 "/>
<path style=" stroke:none;fill-rule:evenodd;fill:rgb(100%,100%,100%);fill-opacity:1;" d="M 7.582031 8.191406 C 7.410156 8.191406 7.273438 8.335938 7.273438 8.511719 C 7.273438 8.6875 7.410156 8.828125 7.582031 8.828125 C 8.554688 8.828125 11.53125 8.832031 12.503906 8.832031 C 12.675781 8.832031 12.8125 8.691406 12.8125 8.515625 C 12.8125 8.339844 12.675781 8.199219 12.503906 8.199219 C 11.535156 8.195312 8.554688 8.195312 7.582031 8.191406 Z M 7.582031 8.191406 "/>
<path style=" stroke:none;fill-rule:evenodd;fill:rgb(100%,100%,100%);fill-opacity:1;" d="M 8.601562 6.585938 C 8.480469 6.464844 8.285156 6.464844 8.164062 6.589844 C 8.042969 6.710938 8.042969 6.914062 8.164062 7.039062 C 8.832031 7.71875 10.828125 9.765625 11.492188 10.449219 C 11.613281 10.574219 11.8125 10.574219 11.929688 10.449219 C 12.050781 10.324219 12.050781 10.121094 11.929688 10 C 11.265625 9.316406 9.269531 7.269531 8.601562 6.585938 Z M 8.601562 6.585938 "/>
<path style=" stroke:none;fill-rule:evenodd;fill:rgb(100%,100%,100%);fill-opacity:1;" d="M 8.167969 10.003906 C 8.046875 10.128906 8.050781 10.328125 8.171875 10.453125 C 8.292969 10.578125 8.488281 10.578125 8.609375 10.453125 C 9.273438 9.769531 11.261719 7.714844 11.925781 7.03125 C 12.046875 6.90625 12.046875 6.707031 11.925781 6.582031 C 11.804688 6.457031 11.609375 6.457031 11.488281 6.582031 C 10.824219 7.269531 8.832031 9.320312 8.167969 10.003906 Z M 8.167969 10.003906 "/>
<path style="fill:none;stroke-width:14.8532;stroke-linecap:butt;stroke-linejoin:miter;stroke:rgb(94.117647%,50.980392%,49.019608%);stroke-opacity:1;stroke-miterlimit:4;" d="M 364.5 660.814967 C 535.359375 660.814967 674.040234 525.661595 674.040234 358.845395 C 674.040234 192.175781 535.359375 57.02241 364.5 57.02241 C 193.640625 57.02241 55.102148 192.175781 55.102148 358.845395 C 55.102148 525.661595 193.640625 660.814967 364.5 660.814967 Z M 364.5 660.814967 " transform="matrix(0.0274348,0,0,0.026648,0,0)"/>
</g>
</svg>
