<?xml version="1.0" encoding="UTF-8"?>
<svg xmlns="http://www.w3.org/2000/svg" xmlns:xlink="http://www.w3.org/1999/xlink" width="20px" height="20px" viewBox="0 0 20 20" version="1.1">
<g id="surface1">
<path style=" stroke:none;fill-rule:nonzero;fill:rgb(0%,0%,0%);fill-opacity:1;" d="M 13.878906 10 L 10.140625 10 L 10.140625 13.742188 L 13.878906 13.742188 Z M 6.398438 6.257812 C 8.460938 6.257812 10.136719 7.933594 10.136719 10 L 6.398438 10 Z M 6.398438 10 L 4.238281 13.742188 L 8.558594 13.742188 Z M 13.890625 9.996094 C 14.925781 9.996094 15.761719 9.160156 15.761719 8.128906 C 15.761719 7.097656 14.925781 6.261719 13.890625 6.261719 C 12.859375 6.261719 12.023438 7.097656 12.023438 8.128906 C 12.023438 9.160156 12.859375 9.996094 13.890625 9.996094 Z M 13.890625 9.996094 "/>
<path style=" stroke:none;fill-rule:nonzero;fill:rgb(0%,0%,0%);fill-opacity:1;" d="M 10 20 C 7.328125 20 4.816406 18.960938 2.929688 17.070312 C 1.039062 15.183594 0 12.671875 0 10 C 0 7.328125 1.039062 4.816406 2.929688 2.929688 C 4.816406 1.039062 7.328125 0 10 0 C 12.671875 0 15.183594 1.039062 17.070312 2.929688 C 18.960938 4.816406 20 7.328125 20 10 C 20 12.671875 18.960938 15.183594 17.070312 17.070312 C 15.183594 18.960938 12.671875 20 10 20 Z M 10 1.238281 C 7.660156 1.238281 5.460938 2.148438 3.804688 3.804688 C 2.152344 5.460938 1.238281 7.660156 1.238281 10 C 1.238281 12.339844 2.152344 14.539062 3.804688 16.195312 C 5.460938 17.847656 7.660156 18.761719 10 18.761719 C 12.339844 18.761719 14.539062 17.847656 16.195312 16.195312 C 17.847656 14.539062 18.761719 12.339844 18.761719 10 C 18.761719 7.660156 17.847656 5.460938 16.195312 3.804688 C 14.539062 2.152344 12.339844 1.238281 10 1.238281 Z M 10 1.238281 "/>
</g>
</svg>
