<?xml version="1.0" encoding="UTF-8"?>
<svg xmlns="http://www.w3.org/2000/svg" xmlns:xlink="http://www.w3.org/1999/xlink" width="20px" height="20px" viewBox="0 0 20 20" version="1.1">
<g id="surface1">
<path style=" stroke:none;fill-rule:nonzero;fill:rgb(87.843137%,85.490196%,93.333333%);fill-opacity:1;" d="M 14.4375 10.007812 C 14.4375 10.257812 14.234375 10.457031 13.988281 10.457031 C 13.742188 10.457031 13.539062 10.257812 13.539062 10.007812 C 13.539062 9.761719 13.742188 9.558594 13.988281 9.558594 C 14.234375 9.558594 14.4375 9.761719 14.4375 10.007812 Z M 14.4375 10.007812 "/>
<path style=" stroke:none;fill-rule:nonzero;fill:rgb(87.843137%,85.490196%,93.333333%);fill-opacity:1;" d="M 18.433594 6.011719 C 18.433594 6.257812 18.234375 6.460938 17.984375 6.460938 C 17.738281 6.460938 17.535156 6.257812 17.535156 6.011719 C 17.535156 5.761719 17.738281 5.5625 17.984375 5.5625 C 18.234375 5.5625 18.433594 5.761719 18.433594 6.011719 Z M 18.433594 6.011719 "/>
<path style=" stroke:none;fill-rule:nonzero;fill:rgb(87.843137%,85.490196%,93.333333%);fill-opacity:1;" d="M 6.445312 2 C 6.445312 2.246094 6.242188 2.445312 5.996094 2.445312 C 5.746094 2.445312 5.546875 2.246094 5.546875 2 C 5.546875 1.75 5.746094 1.550781 5.996094 1.550781 C 6.242188 1.550781 6.445312 1.75 6.445312 2 Z M 6.445312 2 "/>
<path style=" stroke:none;fill-rule:nonzero;fill:rgb(87.843137%,85.490196%,93.333333%);fill-opacity:1;" d="M 2.445312 13.988281 C 2.445312 14.234375 2.246094 14.4375 2 14.4375 C 1.75 14.4375 1.550781 14.234375 1.550781 13.988281 C 1.550781 13.742188 1.75 13.539062 2 13.539062 C 2.246094 13.539062 2.445312 13.742188 2.445312 13.988281 Z M 2.445312 13.988281 "/>
<path style=" stroke:none;fill-rule:nonzero;fill:rgb(87.843137%,85.490196%,93.333333%);fill-opacity:1;" d="M 18.320312 2.007812 C 18.320312 2.195312 18.167969 2.347656 17.976562 2.347656 C 17.789062 2.347656 17.632812 2.195312 17.632812 2.007812 C 17.632812 1.816406 17.789062 1.664062 17.976562 1.664062 C 18.167969 1.664062 18.320312 1.816406 18.320312 2.007812 Z M 18.320312 2.007812 "/>
<path style=" stroke:none;fill-rule:nonzero;fill:rgb(87.843137%,85.490196%,93.333333%);fill-opacity:1;" d="M 10.328125 6.003906 C 10.328125 6.191406 10.171875 6.347656 9.984375 6.347656 C 9.792969 6.347656 9.640625 6.191406 9.640625 6.003906 C 9.640625 5.8125 9.792969 5.660156 9.984375 5.660156 C 10.171875 5.660156 10.328125 5.8125 10.328125 6.003906 Z M 10.328125 6.003906 "/>
<path style=" stroke:none;fill-rule:nonzero;fill:rgb(87.843137%,85.490196%,93.333333%);fill-opacity:1;" d="M 10.328125 13.996094 C 10.328125 14.1875 10.171875 14.339844 9.984375 14.339844 C 9.792969 14.339844 9.640625 14.1875 9.640625 13.996094 C 9.640625 13.808594 9.792969 13.652344 9.984375 13.652344 C 10.171875 13.652344 10.328125 13.808594 10.328125 13.996094 Z M 10.328125 13.996094 "/>
<path style=" stroke:none;fill-rule:nonzero;fill:rgb(87.843137%,85.490196%,93.333333%);fill-opacity:1;" d="M 2.332031 17.976562 C 2.332031 18.167969 2.179688 18.320312 1.988281 18.320312 C 1.800781 18.320312 1.648438 18.167969 1.648438 17.976562 C 1.648438 17.789062 1.800781 17.632812 1.988281 17.632812 C 2.179688 17.632812 2.332031 17.789062 2.332031 17.976562 Z M 2.332031 17.976562 "/>
<path style=" stroke:none;fill-rule:nonzero;fill:rgb(87.843137%,85.490196%,93.333333%);fill-opacity:1;" d="M 10.800781 10.015625 C 10.800781 10.46875 10.433594 10.832031 9.984375 10.832031 C 9.53125 10.832031 9.167969 10.46875 9.167969 10.015625 C 9.167969 9.566406 9.53125 9.199219 9.984375 9.199219 C 10.433594 9.199219 10.800781 9.566406 10.800781 10.015625 Z M 10.800781 10.015625 "/>
<path style=" stroke:none;fill-rule:nonzero;fill:rgb(87.843137%,85.490196%,93.333333%);fill-opacity:1;" d="M 6.328125 9.984375 C 6.328125 10.171875 6.175781 10.328125 5.988281 10.328125 C 5.796875 10.328125 5.644531 10.171875 5.644531 9.984375 C 5.644531 9.792969 5.796875 9.640625 5.988281 9.640625 C 6.175781 9.640625 6.328125 9.792969 6.328125 9.984375 Z M 6.328125 9.984375 "/>
<path style=" stroke:none;fill-rule:nonzero;fill:rgb(87.843137%,85.490196%,93.333333%);fill-opacity:1;" d="M 14.324219 17.992188 C 14.324219 18.183594 14.167969 18.335938 13.980469 18.335938 C 13.792969 18.335938 13.636719 18.183594 13.636719 17.992188 C 13.636719 17.804688 13.792969 17.652344 13.980469 17.652344 C 14.167969 17.652344 14.324219 17.804688 14.324219 17.992188 Z M 14.324219 17.992188 "/>
<path style=" stroke:none;fill-rule:nonzero;fill:rgb(87.843137%,85.490196%,93.333333%);fill-opacity:1;" d="M 6.199219 13.988281 C 6.199219 14.101562 6.109375 14.191406 5.996094 14.191406 C 5.882812 14.191406 5.792969 14.101562 5.792969 13.988281 C 5.792969 13.875 5.882812 13.785156 5.996094 13.785156 C 6.109375 13.785156 6.199219 13.875 6.199219 13.988281 Z M 6.199219 13.988281 "/>
<path style=" stroke:none;fill-rule:nonzero;fill:rgb(87.843137%,85.490196%,93.333333%);fill-opacity:1;" d="M 6.199219 17.984375 C 6.199219 18.097656 6.109375 18.1875 5.996094 18.1875 C 5.882812 18.1875 5.792969 18.097656 5.792969 17.984375 C 5.792969 17.871094 5.882812 17.78125 5.996094 17.78125 C 6.109375 17.78125 6.199219 17.871094 6.199219 17.984375 Z M 6.199219 17.984375 "/>
<path style=" stroke:none;fill-rule:nonzero;fill:rgb(87.843137%,85.490196%,93.333333%);fill-opacity:1;" d="M 14.191406 6.011719 C 14.191406 6.125 14.101562 6.214844 13.988281 6.214844 C 13.875 6.214844 13.785156 6.125 13.785156 6.011719 C 13.785156 5.898438 13.875 5.808594 13.988281 5.808594 C 14.101562 5.808594 14.191406 5.898438 14.191406 6.011719 Z M 14.191406 6.011719 "/>
<path style=" stroke:none;fill-rule:nonzero;fill:rgb(87.843137%,85.490196%,93.333333%);fill-opacity:1;" d="M 14.191406 2.015625 C 14.191406 2.128906 14.101562 2.21875 13.988281 2.21875 C 13.875 2.21875 13.785156 2.128906 13.785156 2.015625 C 13.785156 1.902344 13.875 1.8125 13.988281 1.8125 C 14.101562 1.8125 14.191406 1.902344 14.191406 2.015625 Z M 14.191406 2.015625 "/>
<path style=" stroke:none;fill-rule:nonzero;fill:rgb(87.843137%,85.490196%,93.333333%);fill-opacity:1;" d="M 2.644531 9.984375 C 2.644531 10.34375 2.351562 10.636719 1.988281 10.636719 C 1.628906 10.636719 1.335938 10.34375 1.335938 9.984375 C 1.335938 9.625 1.628906 9.332031 1.988281 9.332031 C 2.351562 9.332031 2.644531 9.625 2.644531 9.984375 Z M 2.644531 9.984375 "/>
<path style=" stroke:none;fill-rule:nonzero;fill:rgb(87.843137%,85.490196%,93.333333%);fill-opacity:1;" d="M 2.644531 5.988281 C 2.644531 6.347656 2.351562 6.640625 1.988281 6.640625 C 1.628906 6.640625 1.335938 6.347656 1.335938 5.988281 C 1.335938 5.625 1.628906 5.335938 1.988281 5.335938 C 2.351562 5.335938 2.644531 5.625 2.644531 5.988281 Z M 2.644531 5.988281 "/>
<path style=" stroke:none;fill-rule:nonzero;fill:rgb(87.843137%,85.490196%,93.333333%);fill-opacity:1;" d="M 18.628906 10 C 18.628906 10.359375 18.335938 10.652344 17.976562 10.652344 C 17.617188 10.652344 17.324219 10.359375 17.324219 10 C 17.324219 9.640625 17.617188 9.347656 17.976562 9.347656 C 18.335938 9.347656 18.628906 9.640625 18.628906 10 Z M 18.628906 10 "/>
<path style=" stroke:none;fill-rule:nonzero;fill:rgb(87.843137%,85.490196%,93.333333%);fill-opacity:1;" d="M 18.628906 13.996094 C 18.628906 14.355469 18.335938 14.648438 17.976562 14.648438 C 17.617188 14.648438 17.324219 14.355469 17.324219 13.996094 C 17.324219 13.636719 17.617188 13.34375 17.976562 13.34375 C 18.335938 13.34375 18.628906 13.636719 18.628906 13.996094 Z M 18.628906 13.996094 "/>
<path style=" stroke:none;fill-rule:nonzero;fill:rgb(87.843137%,85.490196%,93.333333%);fill-opacity:1;" d="M 14.796875 14.011719 C 14.796875 14.464844 14.429688 14.828125 13.980469 14.828125 C 13.53125 14.828125 13.164062 14.464844 13.164062 14.011719 C 13.164062 13.5625 13.53125 13.199219 13.980469 13.199219 C 14.429688 13.199219 14.796875 13.5625 14.796875 14.011719 Z M 14.796875 14.011719 "/>
<path style=" stroke:none;fill-rule:nonzero;fill:rgb(87.843137%,85.490196%,93.333333%);fill-opacity:1;" d="M 18.792969 18.011719 C 18.792969 18.460938 18.425781 18.824219 17.976562 18.824219 C 17.527344 18.824219 17.160156 18.460938 17.160156 18.011719 C 17.160156 17.558594 17.527344 17.195312 17.976562 17.195312 C 18.425781 17.195312 18.792969 17.558594 18.792969 18.011719 Z M 18.792969 18.011719 "/>
<path style=" stroke:none;fill-rule:nonzero;fill:rgb(87.843137%,85.490196%,93.333333%);fill-opacity:1;" d="M 6.800781 6.003906 C 6.800781 6.453125 6.4375 6.820312 5.988281 6.820312 C 5.535156 6.820312 5.171875 6.453125 5.171875 6.003906 C 5.171875 5.554688 5.535156 5.1875 5.988281 5.1875 C 6.4375 5.1875 6.800781 5.554688 6.800781 6.003906 Z M 6.800781 6.003906 "/>
<path style=" stroke:none;fill-rule:nonzero;fill:rgb(87.843137%,85.490196%,93.333333%);fill-opacity:1;" d="M 2.804688 2.007812 C 2.804688 2.457031 2.441406 2.820312 1.988281 2.820312 C 1.539062 2.820312 1.175781 2.457031 1.175781 2.007812 C 1.175781 1.554688 1.539062 1.191406 1.988281 1.191406 C 2.441406 1.191406 2.804688 1.554688 2.804688 2.007812 Z M 2.804688 2.007812 "/>
</g>
</svg>
