<?xml version="1.0" encoding="UTF-8"?>
<svg xmlns="http://www.w3.org/2000/svg" xmlns:xlink="http://www.w3.org/1999/xlink" width="20px" height="20px" viewBox="0 0 20 20" version="1.1">
<g id="surface1">
<path style=" stroke:none;fill-rule:nonzero;fill:rgb(36.862745%,23.921569%,100%);fill-opacity:1;" d="M 11.75 20 L 8.25 20 C 5.683594 19.996094 3.609375 17.917969 3.605469 15.351562 L 5.609375 15.351562 C 5.609375 16.8125 6.789062 17.996094 8.25 17.996094 L 11.75 17.996094 C 12.863281 17.996094 13.855469 17.296875 14.230469 16.25 C 14.609375 15.203125 14.292969 14.035156 13.441406 13.320312 L 5.445312 8.34375 C 5.410156 8.324219 5.378906 8.300781 5.347656 8.277344 C 3.808594 7.042969 3.214844 4.972656 3.867188 3.109375 C 4.519531 1.25 6.277344 0 8.25 0 L 11.75 0 C 14.316406 0.00390625 16.390625 2.082031 16.394531 4.648438 L 14.390625 4.648438 C 14.390625 3.1875 13.210938 2.003906 11.75 2.003906 L 8.25 2.003906 C 7.136719 2.003906 6.144531 2.703125 5.769531 3.75 C 5.390625 4.796875 5.707031 5.964844 6.558594 6.679688 L 14.554688 11.65625 C 14.589844 11.675781 14.621094 11.699219 14.652344 11.722656 C 16.191406 12.957031 16.785156 15.027344 16.132812 16.890625 C 15.480469 18.75 13.726562 19.996094 11.753906 20 Z M 11.75 20 "/>
<path style=" stroke:none;fill-rule:nonzero;fill:rgb(36.862745%,23.921569%,100%);fill-opacity:1;" d="M 15.347656 16.398438 L 15.347656 14.402344 C 16.804688 14.398438 17.988281 13.214844 17.988281 11.757812 L 17.988281 8.246094 C 17.988281 7.132812 17.292969 6.140625 16.246094 5.761719 C 15.203125 5.382812 14.03125 5.699219 13.320312 6.550781 L 8.347656 14.558594 C 8.328125 14.59375 8.304688 14.625 8.28125 14.65625 C 7.046875 16.195312 4.976562 16.792969 3.117188 16.136719 C 1.253906 15.484375 0.0078125 13.726562 0.0117188 11.753906 L 0.0117188 8.246094 C 0.0117188 5.683594 2.089844 3.601562 4.652344 3.597656 L 4.652344 5.601562 C 3.195312 5.605469 2.011719 6.789062 2.011719 8.246094 L 2.011719 11.753906 C 2.011719 12.863281 2.707031 13.859375 3.753906 14.238281 C 4.796875 14.617188 5.96875 14.300781 6.679688 13.449219 L 11.652344 5.441406 C 11.671875 5.40625 11.695312 5.375 11.71875 5.34375 C 12.953125 3.800781 15.023438 3.207031 16.882812 3.863281 C 18.746094 4.515625 19.992188 6.273438 19.988281 8.246094 L 19.988281 11.753906 C 19.988281 14.316406 17.910156 16.394531 15.347656 16.398438 Z M 15.347656 16.398438 "/>
</g>
</svg>
